<?xml version="1.0" encoding="UTF-8"?>
<svg xmlns="http://www.w3.org/2000/svg" xmlns:xlink="http://www.w3.org/1999/xlink" width="px" height="40px" viewBox="0 0 40 40" version="1.1">
<g id="surface1">
<path style=" stroke:none;fill-rule:nonzero;fill:rgb(100%,83.529413%,0%);fill-opacity:1;" d="M 20.796875 20 C 20.796875 27.269531 16.753906 33.597656 10.796875 36.859375 C 13.53125 38.351562 16.664062 39.203125 20 39.203125 C 30.605469 39.203125 39.203125 30.605469 39.203125 20 C 39.203125 9.394531 30.605469 0.796875 20 0.796875 C 16.664062 0.796875 13.53125 1.648438 10.796875 3.140625 C 16.753906 6.402344 20.796875 12.730469 20.796875 20 Z M 20.796875 20 "/>
<path style=" stroke:none;fill-rule:nonzero;fill:rgb(21.176471%,78.431374%,92.156863%);fill-opacity:1;" d="M 0.796875 20 C 0.796875 27.269531 4.839844 33.597656 10.796875 36.859375 C 16.753906 33.597656 20.796875 27.269531 20.796875 20 C 20.796875 12.730469 16.753906 6.402344 10.796875 3.140625 C 4.839844 6.402344 0.796875 12.730469 0.796875 20 Z M 0.796875 20 "/>
<path style=" stroke:none;fill-rule:nonzero;fill:rgb(23.921569%,23.921569%,23.921569%);fill-opacity:1;" d="M 34.140625 5.859375 C 30.363281 2.082031 25.34375 0 20 0 C 16.652344 0 13.335938 0.84375 10.414062 2.441406 C 10.414062 2.441406 10.414062 2.441406 10.414062 2.445312 C 3.992188 5.957031 0 12.683594 0 20 C 0 27.316406 3.992188 34.042969 10.414062 37.554688 C 10.414062 37.558594 10.414062 37.558594 10.414062 37.558594 C 13.335938 39.15625 16.652344 40 20 40 C 25.34375 40 30.363281 37.917969 34.140625 34.140625 C 37.917969 30.363281 40 25.34375 40 20 C 40 14.65625 37.917969 9.636719 34.140625 5.859375 Z M 1.59375 20 C 1.59375 13.414062 5.109375 7.34375 10.796875 4.054688 C 16.484375 7.34375 20 13.414062 20 20 C 20 26.585938 16.484375 32.65625 10.796875 35.945312 C 5.109375 32.65625 1.59375 26.585938 1.59375 20 Z M 20 38.40625 C 17.398438 38.40625 14.816406 37.851562 12.457031 36.792969 C 18.128906 33.121094 21.59375 26.816406 21.59375 20 C 21.59375 13.183594 18.128906 6.878906 12.457031 3.207031 C 14.816406 2.148438 17.398438 1.59375 20 1.59375 C 30.148438 1.59375 38.40625 9.851562 38.40625 20 C 38.40625 30.148438 30.148438 38.40625 20 38.40625 Z M 20 38.40625 "/>
<path style=" stroke:none;fill-rule:nonzero;fill:rgb(23.921569%,23.921569%,23.921569%);fill-opacity:1;" d="M 4.652344 20.984375 C 4.632812 20.660156 4.621094 20.328125 4.621094 20 C 4.621094 19.558594 4.265625 19.203125 3.824219 19.203125 C 3.382812 19.203125 3.027344 19.558594 3.027344 20 C 3.027344 20.363281 3.039062 20.726562 3.0625 21.085938 C 3.089844 21.507812 3.441406 21.832031 3.855469 21.832031 C 3.875 21.832031 3.890625 21.832031 3.90625 21.832031 C 4.347656 21.804688 4.679688 21.425781 4.652344 20.984375 Z M 4.652344 20.984375 "/>
<path style=" stroke:none;fill-rule:nonzero;fill:rgb(23.921569%,23.921569%,23.921569%);fill-opacity:1;" d="M 11.574219 33.832031 C 11.824219 33.46875 11.726562 32.972656 11.363281 32.726562 C 8.84375 31.011719 6.90625 28.621094 5.757812 25.8125 C 5.589844 25.40625 5.125 25.210938 4.71875 25.375 C 4.3125 25.542969 4.117188 26.007812 4.28125 26.414062 C 5.550781 29.515625 7.6875 32.15625 10.46875 34.042969 C 10.605469 34.136719 10.761719 34.183594 10.914062 34.183594 C 11.171875 34.183594 11.421875 34.0625 11.574219 33.832031 Z M 11.574219 33.832031 "/>
</g>
</svg>
